# xmcd
#
# Track frame offsets:
#	150
#	14862
#	28607
#	38477
#	50540
#	75105
#	89600
#	103520
#	117747
#	129895
#	142665
#	157427
#	169527
#	184245
#	198042
#	212787
#	227077
#	239717
#	254440
#	268790
#
# Disc length: 3766 seconds
#
# Revision: 0
# Processed by: cddbd v1.4PL0 Copyright (c) Steve Scherf et al.
# Submitted via: dBpowerAMP V4.0
#
DISCID=160eb414
DTITLE=Woody Herman - Woodchopper's Ball
DYEAR=1900
DGENRE=Blues
TTITLE0=Blues In The Night
TTITLE1=Herman At The Sherman
TTITLE2=Woodsheddin' With Woody
TTITLE3=Yardbird Shuffle
TTITLE4=Get Your Boots Laced, Papa
TTITLE5='Tis Autume
TTITLE6=Pick-A-Rib
TTITLE7=Blue Upstairs
TTITLE8=Big Wig InThe Wigwam
TTITLE9=Blues Downstairs
TTITLE10=At The Woodchopper's Ball
TTITLE11=Bishop's Blues
TTITLE12=The Golden Wedding
TTITLE13=Hot Chestnuts
TTITLE14=Blue Flame
TTITLE15=Fur Trapper's Ball
TTITLE16=Down Under
TTITLE17=Blue Prelude
TTITLE18=A String Of Pearls
TTITLE19=Dallas Blues
EXTD=
EXTT0=
EXTT1=
EXTT2=
EXTT3=
EXTT4=
EXTT5=
EXTT6=
EXTT7=
EXTT8=
EXTT9=
EXTT10=
EXTT11=
EXTT12=
EXTT13=
EXTT14=
EXTT15=
EXTT16=
EXTT17=
EXTT18=
EXTT19=
PLAYORDER=
